# xmcd
#
# Track frame offsets: 
#        150
#        13690
#        31138
#        49017
#        61737
#        73838
#        88521
#        107987
#        121672
#        145868
#        156968
#        172939
#        188217
#        202326
#        216143
#        233098
#        246132
#        256054
#
# Disc length: 3667 seconds
#
# Revision: 4
# Processed by: cddbd v1.5.1PL0 Copyright (c) Steve Scherf et al.
# Submitted via: ExactAudioCopy v0.95b2
#
DISCID=f60e5112
DTITLE=Vários - América Rodeio
DYEAR=2005
DGENRE=Country
TTITLE0=Gian and Giovani - Peão de Vitrine
TTITLE1=Rick and Renner - Nóis Tropica Mais Não Cai
TTITLE2=Alan Jackson - Chattahoochee
TTITLE3=Rio Negro and Solimões - Na Sola da Bota
TTITLE4=Hugo and Tiago - Oito Segundos
TTITLE5=Big and Rich - Save A Horse
TTITLE6=Marlon and Maicon - Coração Aventureiro
TTITLE7=Cesar and Paulinho - Se Tiver Mulher Nóis Vai
TTITLE8=Keith Urban - Somebody Like You
TTITLE9=Teodoro and Sampaio - Garanhão da Madrugada
TTITLE10=Tannia Mara - Amor Ou Paixão
TTITLE11=Billy Ray Cyrus - Achy Breaky Heart
TTITLE12=Bruno and Marrone - Apaziguar
TTITLE13=Luiz Carlos and Giuliano - Eu Sou Peão
TTITLE14=Zezé di Camargo and Luciano - Fera Mansa
TTITLE15=Terri Clark - I Wanna Do It All
TTITLE16=Paula Fernandes - Ave Maria Natureza
TTITLE17=Caetano Veloso - Eu Sei Que Vou Te Amar
EXTD=YEAR: 2005 ID3G: 2
EXTT0=
EXTT1=
EXTT2=
EXTT3=
EXTT4=
EXTT5=
EXTT6=
EXTT7=
EXTT8=
EXTT9=
EXTT10=
EXTT11=
EXTT12=
EXTT13=
EXTT14=
EXTT15=
EXTT16=
EXTT17=
PLAYORDER=
